<svg id="svg" version="1.1" xmlns="http://www.w3.org/2000/svg" xmlns:xlink="http://www.w3.org/1999/xlink" width="400" height="400" viewBox="0, 0, 400,400"><g id="svgg"><path id="path0" d="M191.653 100.699 C 191.533 100.892,189.451 101.173,187.026 101.322 C 184.601 101.471,181.914 101.752,181.055 101.947 C 178.024 102.634,174.783 103.462,172.852 104.043 C 171.777 104.366,170.195 104.836,169.336 105.086 C 168.477 105.336,167.606 105.701,167.402 105.896 C 167.198 106.091,166.759 106.251,166.426 106.252 C 166.093 106.254,165.349 106.501,164.772 106.802 C 164.196 107.102,163.185 107.467,162.526 107.611 C 161.867 107.756,161.328 108.036,161.328 108.234 C 161.328 108.432,161.108 108.596,160.840 108.599 C 159.921 108.610,147.568 115.092,147.331 115.688 C 147.259 115.868,146.978 116.016,146.707 116.016 C 146.435 116.016,145.791 116.364,145.275 116.790 C 143.684 118.101,143.599 118.162,141.992 119.137 C 141.133 119.658,140.254 120.284,140.039 120.529 C 139.824 120.773,138.506 121.822,137.109 122.861 C 135.713 123.899,134.269 125.025,133.901 125.363 C 133.533 125.700,132.589 126.504,131.802 127.148 C 128.290 130.026,121.304 137.467,118.418 141.406 C 117.552 142.588,116.591 143.818,116.281 144.141 C 115.745 144.699,111.591 151.014,109.857 153.906 C 108.339 156.438,105.469 162.418,105.469 163.048 C 105.469 163.391,105.307 163.672,105.109 163.672 C 104.911 163.672,104.625 164.241,104.472 164.936 C 104.319 165.631,103.971 166.554,103.698 166.986 C 103.425 167.419,103.076 168.389,102.923 169.141 C 102.770 169.893,102.518 170.684,102.364 170.898 C 102.210 171.113,101.858 172.344,101.581 173.633 C 101.304 174.922,100.835 176.530,100.539 177.207 C 100.243 177.884,100.000 178.948,100.000 179.571 C 100.000 180.194,99.837 180.870,99.637 181.074 C 99.438 181.278,99.074 183.291,98.829 185.547 C 98.585 187.803,98.201 190.241,97.978 190.965 C 97.466 192.624,97.472 212.170,97.985 213.155 C 98.189 213.547,98.623 215.713,98.949 217.969 C 99.676 222.995,100.367 226.300,100.746 226.561 C 100.903 226.669,101.254 228.032,101.527 229.590 C 101.801 231.147,102.164 232.422,102.336 232.422 C 102.507 232.422,102.771 233.081,102.922 233.887 C 103.072 234.692,103.531 236.089,103.942 236.990 C 104.352 237.892,104.687 238.902,104.688 239.236 C 104.688 239.570,104.857 239.844,105.063 239.844 C 105.270 239.844,105.626 240.539,105.855 241.390 C 106.084 242.240,106.423 243.029,106.608 243.144 C 106.793 243.258,107.052 243.779,107.183 244.300 C 107.469 245.442,111.701 252.875,112.170 253.060 C 112.351 253.132,112.500 253.358,112.500 253.563 C 112.500 254.015,117.090 260.972,117.752 261.523 C 118.010 261.738,118.384 262.203,118.583 262.556 C 120.092 265.232,131.743 276.999,135.159 279.297 C 135.638 279.619,137.118 280.674,138.450 281.641 C 142.872 284.853,143.325 285.156,143.702 285.156 C 143.907 285.156,144.134 285.288,144.206 285.449 C 144.655 286.461,160.348 293.917,163.773 294.747 C 164.366 294.891,164.941 295.155,165.052 295.333 C 165.162 295.512,166.042 295.776,167.006 295.921 C 167.971 296.066,168.846 296.324,168.952 296.495 C 169.058 296.667,169.891 296.920,170.803 297.058 C 171.715 297.197,172.813 297.465,173.242 297.656 C 174.030 298.004,176.447 298.591,179.688 299.221 C 180.654 299.409,182.324 299.559,183.398 299.554 C 185.031 299.547,184.711 299.431,181.445 298.851 C 95.983 283.652,68.693 178.625,136.133 124.469 C 173.546 94.425,216.650 93.735,255.435 122.559 C 289.277 147.708,303.670 191.033,291.349 230.664 C 279.892 267.519,250.411 292.643,211.133 299.026 L 207.617 299.597 211.312 299.388 C 213.345 299.273,215.191 299.031,215.414 298.851 C 215.637 298.672,216.919 298.400,218.262 298.247 C 219.604 298.095,220.703 297.832,220.703 297.663 C 220.703 297.494,221.670 297.235,222.852 297.087 C 224.033 296.940,225.000 296.672,225.000 296.493 C 225.000 296.314,225.879 296.046,226.953 295.898 C 228.027 295.751,228.993 295.488,229.100 295.315 C 229.207 295.142,230.174 294.789,231.250 294.531 C 232.326 294.273,233.303 293.904,233.423 293.711 C 233.542 293.517,233.953 293.359,234.336 293.359 C 235.383 293.359,243.932 289.243,248.429 286.574 C 252.296 284.279,257.422 280.759,257.422 280.398 C 257.422 280.222,257.646 280.078,257.921 280.078 C 258.196 280.078,258.693 279.771,259.027 279.395 C 259.361 279.019,260.299 278.184,261.113 277.539 C 265.141 274.348,276.104 262.863,277.358 260.521 C 277.623 260.025,277.989 259.433,278.172 259.204 C 278.354 258.976,278.946 258.236,279.486 257.561 C 280.027 256.885,280.469 256.212,280.469 256.064 C 280.469 255.917,281.042 254.888,281.743 253.777 C 283.818 250.489,283.971 250.231,284.330 249.411 C 284.520 248.980,285.202 247.732,285.847 246.638 C 286.491 245.545,287.141 244.228,287.289 243.712 C 287.438 243.196,287.887 242.070,288.287 241.211 C 289.542 238.514,290.136 236.999,291.043 234.180 C 291.527 232.676,292.062 231.094,292.232 230.664 C 292.799 229.230,293.355 226.770,293.357 225.684 C 293.358 225.093,293.515 224.609,293.704 224.609 C 293.894 224.609,294.235 223.335,294.463 221.777 C 294.691 220.220,295.104 217.891,295.382 216.602 C 296.053 213.488,296.052 188.165,295.380 185.449 C 295.128 184.429,294.753 182.811,294.547 181.855 C 294.340 180.899,294.004 179.801,293.800 179.414 C 293.596 179.027,293.231 177.511,292.989 176.045 C 292.746 174.578,292.394 173.084,292.205 172.724 C 292.017 172.365,291.478 170.840,291.008 169.336 C 290.538 167.832,289.931 166.247,289.659 165.815 C 289.387 165.382,289.037 164.443,288.880 163.728 C 288.598 162.446,285.693 156.238,285.198 155.859 C 285.057 155.752,284.480 154.758,283.916 153.652 C 282.049 149.990,276.860 142.457,273.889 139.095 C 269.305 133.907,265.377 129.857,262.305 127.148 C 260.842 125.859,259.365 124.528,259.022 124.190 C 258.679 123.853,257.783 123.158,257.031 122.647 C 256.279 122.136,255.576 121.621,255.469 121.503 C 254.999 120.988,252.733 119.531,252.401 119.531 C 252.201 119.531,251.936 119.268,251.812 118.945 C 251.688 118.623,251.318 118.359,250.989 118.359 C 250.660 118.359,250.391 118.184,250.391 117.969 C 250.391 117.754,250.136 117.578,249.824 117.578 C 249.513 117.578,249.117 117.358,248.945 117.090 C 248.608 116.562,247.640 115.900,246.094 115.138 C 245.557 114.874,244.886 114.437,244.604 114.167 C 243.922 113.516,236.299 109.766,235.658 109.766 C 235.382 109.766,235.156 109.598,235.156 109.393 C 235.156 109.188,234.541 108.904,233.789 108.763 C 233.037 108.622,232.422 108.351,232.422 108.160 C 232.422 107.969,232.114 107.807,231.738 107.799 C 231.362 107.792,230.352 107.446,229.492 107.031 C 228.633 106.616,227.632 106.271,227.269 106.263 C 226.906 106.256,226.509 106.090,226.388 105.893 C 226.267 105.697,225.466 105.418,224.609 105.273 C 223.752 105.129,222.964 104.870,222.858 104.698 C 222.752 104.526,222.026 104.266,221.245 104.119 C 220.465 103.973,219.540 103.697,219.190 103.507 C 218.841 103.317,217.588 102.986,216.406 102.773 C 215.225 102.559,213.359 102.196,212.260 101.966 C 207.832 101.037,192.044 100.066,191.653 100.699 M189.318 111.561 C 160.510 116.766,145.138 148.934,159.215 174.558 C 161.080 177.952,162.669 179.902,181.055 201.346 C 198.376 221.548,197.553 220.738,198.910 218.914 C 199.402 218.252,201.409 215.879,203.371 213.641 C 207.231 209.235,216.311 198.769,225.503 188.130 C 236.389 175.531,239.412 169.693,240.675 158.828 C 244.031 129.956,218.346 106.317,189.318 111.561 M204.213 123.668 C 227.103 128.396,236.917 156.531,221.801 174.089 C 219.589 176.659,204.143 193.679,199.882 198.242 L 197.329 200.977 196.380 200.000 C 194.862 198.438,175.810 177.190,173.340 174.304 C 153.927 151.625,174.691 117.570,204.213 123.668 M145.673 131.145 C 140.646 135.373,130.048 145.513,129.901 146.236 C 129.808 146.695,129.460 148.389,129.129 150.000 C 128.301 154.032,127.444 159.759,127.127 163.379 L 126.861 166.406 121.871 166.406 L 116.880 166.406 115.814 169.043 C 114.648 171.925,112.109 179.267,112.109 179.756 C 112.109 179.924,115.563 180.109,119.785 180.168 L 127.460 180.273 128.329 183.398 C 129.677 188.243,130.740 190.733,132.820 193.919 L 134.738 196.856 130.943 200.140 C 126.705 203.807,120.834 208.984,114.953 214.242 L 111.038 217.742 111.974 221.273 C 113.514 227.084,116.006 234.278,118.205 239.258 L 120.275 243.945 124.988 248.439 L 129.702 252.933 128.656 253.979 L 127.611 255.024 131.634 259.446 C 136.959 265.297,136.972 265.306,138.264 263.759 L 139.285 262.536 149.405 271.138 C 154.971 275.870,159.974 280.052,160.524 280.432 C 163.797 282.694,186.421 289.075,189.489 288.600 C 189.941 288.530,195.002 283.461,201.117 276.953 C 207.072 270.615,212.238 265.430,212.596 265.430 C 212.954 265.430,214.969 266.846,217.073 268.577 C 219.177 270.308,223.728 273.872,227.185 276.497 L 233.472 281.268 239.778 277.652 C 245.697 274.257,246.042 273.995,245.405 273.389 C 245.032 273.034,241.387 270.208,237.305 267.109 C 233.223 264.010,227.598 259.738,224.805 257.617 C 222.012 255.495,215.068 250.052,209.375 245.522 C 203.682 240.991,197.441 236.062,195.508 234.567 C 193.574 233.072,188.463 229.034,184.149 225.593 C 179.836 222.152,173.859 217.416,170.868 215.069 C 157.217 204.358,152.320 200.158,152.957 199.709 C 154.822 198.395,159.766 194.382,159.766 194.183 C 159.766 193.820,152.729 183.809,152.385 183.683 C 152.226 183.624,150.576 184.723,148.718 186.124 C 144.663 189.183,145.175 189.151,143.800 186.426 C 137.887 174.699,139.056 152.792,146.671 132.665 C 147.907 129.397,147.852 129.313,145.673 131.145 M248.212 131.250 C 250.703 140.555,251.182 142.853,252.692 152.734 C 255.393 170.415,255.305 179.628,252.337 189.529 L 251.553 192.145 246.773 188.641 L 241.992 185.137 240.039 187.219 C 238.965 188.364,236.995 190.716,235.663 192.446 L 233.240 195.592 239.263 199.954 C 246.093 204.900,245.684 203.983,243.231 208.848 C 241.078 213.117,238.672 216.035,233.423 220.743 C 230.724 223.163,228.516 225.287,228.516 225.463 C 228.516 226.191,227.497 225.552,221.299 220.935 L 214.793 216.088 213.328 217.712 C 212.522 218.605,210.578 220.889,209.009 222.788 L 206.154 226.240 207.639 227.475 C 208.456 228.155,211.334 230.385,214.035 232.432 C 226.596 241.951,232.507 246.443,241.016 252.938 C 246.064 256.792,251.777 261.141,253.711 262.602 L 257.227 265.259 260.681 261.634 C 262.581 259.639,264.633 257.384,265.241 256.622 L 266.347 255.236 261.005 251.178 C 258.068 248.946,251.841 244.232,247.168 240.703 C 237.820 233.643,238.156 234.012,239.941 232.748 C 245.795 228.604,250.756 222.854,254.119 216.315 L 256.275 212.123 259.681 214.619 C 268.806 221.309,280.130 229.371,280.221 229.244 C 280.387 229.014,283.211 216.255,283.207 215.754 C 283.204 215.423,267.132 203.373,263.161 200.725 C 262.934 200.574,263.356 198.475,264.222 195.452 C 265.013 192.690,266.129 188.125,266.702 185.309 L 267.744 180.189 274.586 179.914 C 278.349 179.764,281.472 179.595,281.527 179.541 C 281.621 179.447,278.402 170.426,277.294 167.676 L 276.782 166.406 272.180 166.406 C 268.297 166.406,267.578 166.312,267.578 165.805 C 267.578 159.538,264.864 147.663,262.903 145.350 C 259.593 141.446,247.951 130.271,248.212 131.250 M192.773 137.865 C 181.927 140.503,176.850 154.455,183.249 164.038 C 189.195 172.943,203.231 173.716,210.367 165.533 C 221.221 153.085,209.030 133.912,192.773 137.865 M155.373 219.727 C 160.001 223.341,159.946 223.197,157.520 225.367 C 156.499 226.279,151.930 230.741,147.366 235.283 L 139.069 243.541 136.234 240.778 C 134.674 239.258,130.643 235.523,127.276 232.477 L 121.154 226.940 123.175 225.049 C 124.286 224.008,129.045 219.701,133.750 215.478 L 142.305 207.799 146.838 212.200 C 149.332 214.621,153.172 218.008,155.373 219.727 M177.344 237.279 C 181.104 240.272,186.289 244.409,188.867 246.473 C 191.445 248.536,195.116 251.448,197.024 252.944 C 198.932 254.440,200.865 255.965,201.321 256.333 C 202.141 256.995,202.105 257.045,197.234 261.997 C 194.531 264.744,189.749 269.740,186.607 273.099 L 180.896 279.207 170.216 270.560 C 164.343 265.805,157.128 259.893,154.184 257.423 L 148.832 252.931 159.472 242.285 C 165.325 236.430,170.202 231.684,170.311 231.738 C 170.420 231.792,173.585 234.285,177.344 237.279 M186.193 300.098 C 186.293 300.259,190.836 300.391,196.289 300.391 C 201.742 300.391,206.285 300.259,206.385 300.098 C 206.484 299.937,201.941 299.805,196.289 299.805 C 190.637 299.805,186.093 299.937,186.193 300.098 " stroke="none" fill="#faf9f9" fill-rule="evenodd"></path><path id="path1" d="M198.926 101.441 C 199.302 101.539,199.917 101.539,200.293 101.441 C 200.669 101.343,200.361 101.263,199.609 101.263 C 198.857 101.263,198.550 101.343,198.926 101.441 M189.211 123.819 C 167.172 129.597,158.549 157.025,173.340 174.304 C 175.810 177.190,194.862 198.438,196.380 200.000 L 197.329 200.977 199.882 198.242 C 204.143 193.679,219.589 176.659,221.801 174.089 C 231.929 162.325,231.128 143.089,220.055 132.154 C 212.299 124.495,199.660 121.079,189.211 123.819 M202.862 138.258 C 220.851 144.447,216.628 171.138,197.653 171.180 C 187.140 171.202,180.115 163.953,180.538 153.516 C 181.000 142.127,192.085 134.550,202.862 138.258 M276.270 179.957 C 276.646 180.055,277.261 180.055,277.637 179.957 C 278.013 179.859,277.705 179.778,276.953 179.778 C 276.201 179.778,275.894 179.859,276.270 179.957 M98.145 199.805 C 98.150 200.664,98.230 200.970,98.323 200.484 C 98.417 199.998,98.413 199.295,98.315 198.921 C 98.217 198.548,98.141 198.945,98.145 199.805 M98.153 203.125 C 98.153 204.092,98.229 204.487,98.323 204.004 C 98.416 203.521,98.416 202.729,98.323 202.246 C 98.229 201.763,98.153 202.158,98.153 203.125 M146.875 212.695 C 147.604 213.447,148.288 214.063,148.395 214.063 C 148.503 214.063,147.994 213.447,147.266 212.695 C 146.537 211.943,145.853 211.328,145.745 211.328 C 145.638 211.328,146.146 211.943,146.875 212.695 M157.983 224.707 L 156.836 225.977 158.105 224.829 C 159.289 223.760,159.555 223.438,159.253 223.438 C 159.186 223.438,158.614 224.009,157.983 224.707 " stroke="none" fill="#e93735" fill-rule="evenodd"></path><path id="path2" d="M190.234 101.565 C 147.947 105.051,108.363 140.792,100.034 183.008 C 89.029 238.794,128.991 292.824,186.130 299.415 C 257.612 307.659,313.288 238.596,290.405 170.065 C 276.753 129.178,231.409 98.171,190.234 101.565 M205.125 111.512 C 227.429 115.424,242.250 134.326,240.868 157.099 C 240.134 169.191,236.918 175.213,222.236 191.992 C 218.100 196.719,212.073 203.662,208.842 207.422 C 199.311 218.514,197.888 220.117,197.581 220.117 C 197.184 220.117,186.665 208.034,167.367 185.411 C 157.699 174.076,154.594 167.288,154.031 156.250 C 152.599 128.195,177.239 106.621,205.125 111.512 M146.286 134.038 C 139.196 154.368,138.058 174.027,143.321 185.244 C 145.123 189.084,144.783 189.026,148.588 186.156 C 150.456 184.747,152.120 183.594,152.285 183.594 C 152.601 183.594,159.224 192.903,159.595 193.868 C 159.738 194.241,158.683 195.312,156.468 197.041 C 154.629 198.477,153.125 199.802,153.125 199.985 C 153.125 200.656,158.722 205.456,167.945 212.695 C 173.146 216.777,181.484 223.369,186.474 227.344 C 191.464 231.318,198.350 236.767,201.777 239.453 C 205.204 242.138,210.205 246.104,212.891 248.267 C 215.576 250.429,220.234 254.074,223.242 256.366 C 226.250 258.659,231.963 263.012,235.938 266.041 C 239.912 269.070,243.844 272.108,244.675 272.794 L 246.186 274.039 239.854 277.668 C 234.264 280.872,233.437 281.238,232.794 280.785 C 230.276 279.013,220.626 271.548,217.125 268.664 C 214.835 266.778,212.779 265.234,212.557 265.234 C 212.334 265.234,207.205 270.508,201.159 276.953 C 192.723 285.946,189.949 288.672,189.237 288.672 C 185.937 288.672,173.137 285.389,165.492 282.582 L 160.742 280.838 151.758 273.194 C 146.816 268.990,142.020 264.926,141.099 264.162 L 139.424 262.773 138.343 263.808 C 136.788 265.298,136.816 265.315,132.012 259.940 L 127.629 255.035 128.644 253.976 L 129.659 252.916 125.165 248.680 C 120.272 244.068,119.725 243.232,116.625 235.624 C 114.872 231.324,113.116 225.879,111.795 220.655 L 111.042 217.676 115.134 214.014 C 123.049 206.930,128.352 202.259,131.536 199.566 L 134.753 196.847 133.242 194.615 C 130.850 191.081,127.344 182.526,127.344 180.223 C 127.344 180.143,123.902 180.078,119.696 180.078 L 112.047 180.078 112.323 178.809 C 112.647 177.316,114.440 172.310,115.891 168.848 L 116.914 166.406 121.751 166.406 C 125.284 166.406,126.625 166.275,126.728 165.918 C 126.806 165.649,127.145 163.057,127.482 160.156 C 128.236 153.664,129.585 146.562,130.270 145.484 C 131.257 143.929,147.210 129.502,147.558 129.850 C 147.635 129.927,147.063 131.812,146.286 134.038 M263.732 146.202 C 264.758 147.612,266.643 156.049,267.233 161.875 L 267.693 166.406 272.252 166.406 L 276.811 166.406 278.053 169.434 C 279.640 173.302,281.686 179.382,281.472 179.595 C 281.382 179.686,278.269 179.875,274.555 180.017 L 267.801 180.273 267.521 181.641 C 266.015 189.004,264.982 193.343,264.007 196.392 C 263.371 198.382,262.952 200.174,263.075 200.374 C 263.281 200.706,271.096 206.491,279.905 212.832 L 283.443 215.379 281.877 222.338 C 281.015 226.165,280.214 229.294,280.097 229.290 C 279.894 229.283,267.181 220.193,260.029 214.941 C 255.920 211.925,256.389 211.828,254.297 216.117 C 251.392 222.071,247.735 226.477,241.406 231.648 C 240.010 232.789,238.867 233.875,238.867 234.062 C 238.867 234.369,248.053 241.438,261.426 251.423 C 265.894 254.760,266.355 255.214,265.915 255.843 C 265.164 256.915,257.649 265.165,257.389 265.202 C 257.123 265.240,253.515 262.560,242.969 254.493 C 238.779 251.289,229.541 244.263,222.438 238.881 C 215.336 233.499,208.757 228.458,207.819 227.679 L 206.114 226.262 209.600 222.059 C 211.517 219.748,213.442 217.427,213.877 216.902 L 214.668 215.948 221.269 220.820 L 227.869 225.692 233.076 221.003 C 239.684 215.054,242.125 211.844,244.654 205.780 L 245.257 204.334 239.225 199.989 L 233.192 195.644 234.072 194.404 C 235.313 192.656,241.413 185.371,241.730 185.259 C 241.874 185.209,244.086 186.668,246.645 188.501 C 250.040 190.934,251.381 191.700,251.607 191.334 C 252.969 189.131,254.682 178.843,254.685 172.849 C 254.690 163.861,251.504 142.666,248.793 133.650 C 248.383 132.285,248.047 130.968,248.047 130.724 C 248.047 130.235,262.471 144.468,263.732 146.202 M132.048 217.104 C 126.374 222.199,121.669 226.562,121.593 226.800 C 121.518 227.039,124.055 229.567,127.232 232.418 C 130.409 235.269,134.377 238.926,136.051 240.545 L 139.095 243.487 149.235 233.375 C 154.812 227.813,159.367 223.170,159.357 223.057 C 159.348 222.944,157.201 221.182,154.588 219.141 C 151.974 217.100,148.155 213.722,146.101 211.635 L 142.366 207.841 132.048 217.104 M159.643 242.115 C 148.258 253.505,148.769 252.854,150.283 254.045 C 150.869 254.506,153.110 256.388,155.264 258.228 C 161.583 263.628,180.516 278.906,180.888 278.906 C 181.029 278.906,183.317 276.577,185.971 273.730 C 188.626 270.884,193.220 266.075,196.180 263.044 C 199.141 260.013,201.563 257.333,201.563 257.088 C 201.563 256.614,200.245 255.517,189.258 246.844 C 185.391 243.791,179.678 239.243,176.563 236.737 C 173.447 234.231,170.712 232.069,170.483 231.933 C 170.255 231.796,165.377 236.378,159.643 242.115 " stroke="none" fill="#122222" fill-rule="evenodd"></path></g></svg>