<?xml version="1.0" standalone="no"?><svg xmlns:xlink="http://www.w3.org/1999/xlink" xmlns="http://www.w3.org/2000/svg" viewBox="0 0 1920 1080.0072804805118" preserveAspectRatio="xMaxYMax slice"><g transform="scale(1.6641098312488625)"><rect x="0" y="0" width="1153.7777777777778" height="649" fill="#ffffff"/><rect x="0" y="0" width="72.11" height="72.11" fill="#b9b9b9"/><polygon points="72.11,0 72.11,72.11 0,72.11" fill="#dbdbdb"/><rect x="72.11" y="0" width="72.11" height="72.11" fill="#e7e7e7"/><rect x="72.11" y="0" width="72.11" height="72.11" fill="#efb4b7"/><rect x="144.22" y="0" width="72.11" height="72.11" fill="#f9e5e6"/><polygon points="144.22,0 216.32999999999998,0 144.22,72.11" fill="#fbecec"/><rect x="216.33" y="0" width="72.11" height="72.11" fill="#f8e0e1"/><polygon points="288.44,0 288.44,72.11 216.33,72.11" fill="#f3c4c7"/><rect x="288.44" y="0" width="72.11" height="72.11" fill="#d0d0d0"/><rect x="288.44" y="0" width="72.11" height="72.11" fill="#efb3b6"/><rect x="360.56" y="0" width="72.11" height="72.11" fill="#ffffff"/><polygon points="360.56,0 432.67,0 360.56,72.11" fill="#cacaca"/><rect x="432.67" y="0" width="72.11" height="72.11" fill="#f3f3f3"/><polygon points="432.67,0 504.78000000000003,0 504.78000000000003,72.11" fill="#e4e4e4"/><rect x="504.78" y="0" width="72.11" height="72.11" fill="#f9e1e2"/><polygon points="504.78,0 576.89,0 504.78,72.11" fill="#b7b7b7"/><rect x="576.89" y="0" width="72.11" height="72.11" fill="#f4cdcf"/><polygon points="576.89,0 649,0 649,72.11" fill="#f9e2e3"/><rect x="649" y="0" width="72.11" height="72.11" fill="#fdf6f7"/><rect x="649" y="0" width="72.11" height="72.11" fill="#cbcbcb"/><rect x="721.11" y="0" width="72.11" height="72.11" fill="#f0b9bc"/><path d="M 721.11 0 A 72.11 72.11 0 0 1  793.22 72.11 L 721.11 0 A 72.11 72.11 0 0 0 793.22 72.11" fill="#fdf4f5"/><rect x="793.22" y="0" width="72.11" height="72.11" fill="#fbeaeb"/><rect x="793.22" y="0" width="72.11" height="72.11" fill="#f9e2e3"/><rect x="865.33" y="0" width="72.11" height="72.11" fill="#e3e3e3"/><rect x="865.33" y="0" width="72.11" height="72.11" fill="#e7e7e7"/><rect x="937.44" y="0" width="72.11" height="72.11" fill="#efefef"/><path d="M 937.44 72.11 A 72.11 72.11 0 0 0 1009.5500000000001 0 L 937.44 0" fill="#f1bcbf"/><rect x="1009.56" y="0" width="72.11" height="72.11" fill="#f5ced0"/><rect x="1009.56" y="0" width="72.11" height="72.11" fill="#fceff0"/><rect x="1081.67" y="0" width="72.11" height="72.11" fill="#cdcdcd"/><path d="M 1081.67 72.11 A 72.11 72.11 0 0 1  1153.78 0 L 1153.78 72.11" fill="#f7d9da"/><rect x="0" y="72.11" width="72.11" height="72.11" fill="#e7e7e7"/><path d="M 0 144.22 A 72.11 72.11 0 0 0 72.11 72.11 L 0 72.11" fill="#f2bfc2"/><rect x="72.11" y="72.11" width="72.11" height="72.11" fill="#e2e2e2"/><rect x="72.11" y="72.11" width="72.11" height="72.11" fill="#fbeaeb"/><rect x="144.22" y="72.11" width="72.11" height="72.11" fill="#f6d6d8"/><polygon points="216.32999999999998,72.11 216.32999999999998,144.22 144.22,144.22" fill="#f4cacc"/><rect x="216.33" y="72.11" width="72.11" height="72.11" fill="#eeeeee"/><rect x="216.33" y="72.11" width="72.11" height="72.11" fill="#efb5b8"/><rect x="288.44" y="72.11" width="72.11" height="72.11" fill="#cacaca"/><polygon points="288.44,72.11 360.55,72.11 360.55,144.22" fill="#f5d1d3"/><rect x="360.56" y="72.11" width="72.11" height="72.11" fill="#f7f7f7"/><path d="M 360.56 72.11 A 72.11 72.11 0 0 0 432.67 144.22 L 432.67 72.11" fill="#cecece"/><rect x="432.67" y="72.11" width="72.11" height="72.11" fill="#d0d0d0"/><polygon points="432.67,72.11 504.78000000000003,144.22 432.67,144.22" fill="#dfdfdf"/><rect x="504.78" y="72.11" width="72.11" height="72.11" fill="#f8ddde"/><path d="M 504.78 72.11 A 72.11 72.11 0 0 1 576.89 144.22 L 504.78 144.22" fill="#cccccc"/><rect x="576.89" y="72.11" width="72.11" height="72.11" fill="#c6c6c6"/><rect x="576.89" y="72.11" width="72.11" height="72.11" fill="#f8f8f8"/><rect x="649" y="72.11" width="72.11" height="72.11" fill="#f7dadb"/><rect x="649" y="72.11" width="72.11" height="72.11" fill="#d9d9d9"/><rect x="721.11" y="72.11" width="72.11" height="72.11" fill="#fae9ea"/><rect x="721.11" y="72.11" width="72.11" height="72.11" fill="#f0b8bb"/><rect x="793.22" y="72.11" width="72.11" height="72.11" fill="#b5b5b5"/><rect x="793.22" y="72.11" width="72.11" height="72.11" fill="#f3c8ca"/><rect x="865.33" y="72.11" width="72.11" height="72.11" fill="#e0e0e0"/><polygon points="937.44,72.11 937.44,144.22 865.33,144.22" fill="#dfdfdf"/><rect x="937.44" y="72.11" width="72.11" height="72.11" fill="#fbfbfb"/><path d="M 937.44 72.11 A 72.11 72.11 0 0 1 1009.5500000000001 144.22 L 937.44 144.22" fill="#dfdfdf"/><rect x="1009.56" y="72.11" width="72.11" height="72.11" fill="#f8f8f8"/><path d="M 1009.56 72.11 A 72.11 72.11 0 0 1  1081.6699999999998 144.22 L 1009.56 72.11 A 72.11 72.11 0 0 0 1081.6699999999998 144.22" fill="#d3d3d3"/><rect x="1081.67" y="72.11" width="72.11" height="72.11" fill="#f1bcbf"/><polygon points="1153.78,72.11 1153.78,144.22 1081.67,144.22" fill="#eeeeee"/><rect x="0" y="144.22" width="72.11" height="72.11" fill="#fae9e9"/><path d="M 0 216.32999999999998 A 72.11 72.11 0 0 1  72.11 144.22 L 0 216.32999999999998 A 72.11 72.11 0 0 0 72.11 144.22" fill="#f2c0c2"/><rect x="72.11" y="144.22" width="72.11" height="72.11" fill="#f6d2d4"/><path d="M 72.11 216.32999999999998 A 72.11 72.11 0 0 1  144.22 144.22 L 72.11 216.32999999999998 A 72.11 72.11 0 0 0 144.22 144.22" fill="#f2bfc2"/><rect x="144.22" y="144.22" width="72.11" height="72.11" fill="#fae7e8"/><path d="M 144.22 144.22 A 72.11 72.11 0 0 1 216.32999999999998 216.32999999999998 L 144.22 216.32999999999998" fill="#c9c9c9"/><rect x="216.33" y="144.22" width="72.11" height="72.11" fill="#f8dfe0"/><polygon points="216.33,144.22 288.44,144.22 216.33,216.32999999999998" fill="#d2d2d2"/><rect x="288.44" y="144.22" width="72.11" height="72.11" fill="#fae6e7"/><polygon points="288.44,144.22 360.55,144.22 360.55,216.32999999999998" fill="#f6d4d6"/><rect x="360.56" y="144.22" width="72.11" height="72.11" fill="#f8f8f8"/><polygon points="360.56,144.22 432.67,144.22 432.67,216.32999999999998" fill="#d5d5d5"/><rect x="432.67" y="144.22" width="72.11" height="72.11" fill="#fdfdfd"/><rect x="432.67" y="144.22" width="72.11" height="72.11" fill="#f6d6d8"/><rect x="504.78" y="144.22" width="72.11" height="72.11" fill="#e5e5e5"/><rect x="504.78" y="144.22" width="72.11" height="72.11" fill="#fefafa"/><rect x="576.89" y="144.22" width="72.11" height="72.11" fill="#f5d0d2"/><polygon points="576.89,144.22 649,144.22 576.89,216.32999999999998" fill="#d4d4d4"/><rect x="649" y="144.22" width="72.11" height="72.11" fill="#bfbfbf"/><path d="M 649 144.22 A 72.11 72.11 0 0 1  721.11 216.32999999999998 L 649 144.22 A 72.11 72.11 0 0 0 721.11 216.32999999999998" fill="#f2c2c5"/><rect x="721.11" y="144.22" width="72.11" height="72.11" fill="#b7b7b7"/><polygon points="793.22,144.22 793.22,216.32999999999998 721.11,216.32999999999998" fill="#e4e4e4"/><rect x="793.22" y="144.22" width="72.11" height="72.11" fill="#b5b5b5"/><polygon points="793.22,144.22 865.33,216.32999999999998 793.22,216.32999999999998" fill="#f2f2f2"/><rect x="865.33" y="144.22" width="72.11" height="72.11" fill="#d6d6d6"/><polygon points="865.33,144.22 937.44,144.22 937.44,216.32999999999998" fill="#fae9ea"/><rect x="937.44" y="144.22" width="72.11" height="72.11" fill="#fbfbfb"/><polygon points="1009.5500000000001,144.22 1009.5500000000001,216.32999999999998 937.44,216.32999999999998" fill="#e4e4e4"/><rect x="1009.56" y="144.22" width="72.11" height="72.11" fill="#f5cfd1"/><polygon points="1009.56,144.22 1081.6699999999998,216.32999999999998 1009.56,216.32999999999998" fill="#b7b7b7"/><rect x="1081.67" y="144.22" width="72.11" height="72.11" fill="#fefbfb"/><rect x="1081.67" y="144.22" width="72.11" height="72.11" fill="#e9e9e9"/><rect x="0" y="216.33" width="72.11" height="72.11" fill="#f5d2d4"/><rect x="0" y="216.33" width="72.11" height="72.11" fill="#d2d2d2"/><rect x="72.11" y="216.33" width="72.11" height="72.11" fill="#d5d5d5"/><polygon points="72.11,216.33 144.22,216.33 144.22,288.44" fill="#efb5b8"/><rect x="144.22" y="216.33" width="72.11" height="72.11" fill="#f4c8cb"/><rect x="144.22" y="216.33" width="72.11" height="72.11" fill="#b5b5b5"/><rect x="216.33" y="216.33" width="72.11" height="72.11" fill="#f9f9f9"/><polygon points="216.33,216.33 288.44,216.33 288.44,288.44" fill="#b7b7b7"/><rect x="288.44" y="216.33" width="72.11" height="72.11" fill="#e1e1e1"/><polygon points="288.44,216.33 360.55,288.44 288.44,288.44" fill="#f1f1f1"/><rect x="360.56" y="216.33" width="72.11" height="72.11" fill="#f3f3f3"/><polygon points="360.56,216.33 432.67,216.33 432.67,288.44" fill="#f1bbbe"/><rect x="432.67" y="216.33" width="72.11" height="72.11" fill="#b9b9b9"/><rect x="432.67" y="216.33" width="72.11" height="72.11" fill="#f0b8ba"/><rect x="504.78" y="216.33" width="72.11" height="72.11" fill="#f2c0c2"/><rect x="504.78" y="216.33" width="72.11" height="72.11" fill="#e9e9e9"/><rect x="576.89" y="216.33" width="72.11" height="72.11" fill="#f7d9da"/><rect x="576.89" y="216.33" width="72.11" height="72.11" fill="#b7b7b7"/><rect x="649" y="216.33" width="72.11" height="72.11" fill="#c9c9c9"/><rect x="649" y="216.33" width="72.11" height="72.11" fill="#f8f8f8"/><rect x="721.11" y="216.33" width="72.11" height="72.11" fill="#b6b6b6"/><rect x="721.11" y="216.33" width="72.11" height="72.11" fill="#cfcfcf"/><rect x="793.22" y="216.33" width="72.11" height="72.11" fill="#bcbcbc"/><path d="M 793.22 216.33 A 72.11 72.11 0 0 1  865.33 288.44 L 793.22 216.33 A 72.11 72.11 0 0 0 865.33 288.44" fill="#bbbbbb"/><rect x="865.33" y="216.33" width="72.11" height="72.11" fill="#d6d6d6"/><polygon points="865.33,216.33 937.44,216.33 937.44,288.44" fill="#d1d1d1"/><rect x="937.44" y="216.33" width="72.11" height="72.11" fill="#ffffff"/><path d="M 937.44 216.33 A 72.11 72.11 0 0 1 1009.5500000000001 288.44 L 937.44 288.44" fill="#c9c9c9"/><rect x="1009.56" y="216.33" width="72.11" height="72.11" fill="#dddddd"/><path d="M 1009.56 216.33 A 72.11 72.11 0 0 1  1081.6699999999998 288.44 L 1009.56 216.33 A 72.11 72.11 0 0 0 1081.6699999999998 288.44" fill="#f0b8bb"/><rect x="1081.67" y="216.33" width="72.11" height="72.11" fill="#cccccc"/><polygon points="1081.67,216.33 1153.78,216.33 1081.67,288.44" fill="#fafafa"/><rect x="0" y="288.44" width="72.11" height="72.11" fill="#c1c1c1"/><polygon points="72.11,288.44 72.11,360.55 0,360.55" fill="#d1d1d1"/><rect x="72.11" y="288.44" width="72.11" height="72.11" fill="#fae6e7"/><rect x="72.11" y="288.44" width="72.11" height="72.11" fill="#f0babd"/><rect x="144.22" y="288.44" width="72.11" height="72.11" fill="#f0b6b9"/><polygon points="144.22,288.44 216.32999999999998,288.44 144.22,360.55" fill="#f4ccce"/><rect x="216.33" y="288.44" width="72.11" height="72.11" fill="#e4e4e4"/><rect x="216.33" y="288.44" width="72.11" height="72.11" fill="#f0b8bb"/><rect x="288.44" y="288.44" width="72.11" height="72.11" fill="#f8dddf"/><rect x="288.44" y="288.44" width="72.11" height="72.11" fill="#f0b6b9"/><rect x="360.56" y="288.44" width="72.11" height="72.11" fill="#f2c1c3"/><path d="M 360.56 360.55 A 72.11 72.11 0 0 1  432.67 288.44 L 432.67 360.55" fill="#f7dadb"/><rect x="432.67" y="288.44" width="72.11" height="72.11" fill="#f1f1f1"/><polygon points="504.78000000000003,288.44 504.78000000000003,360.55 432.67,360.55" fill="#b4b4b4"/><rect x="504.78" y="288.44" width="72.11" height="72.11" fill="#dcdcdc"/><polygon points="504.78,288.44 576.89,360.55 504.78,360.55" fill="#f0b7ba"/><rect x="576.89" y="288.44" width="72.11" height="72.11" fill="#f2c3c5"/><rect x="576.89" y="288.44" width="72.11" height="72.11" fill="#d8d8d8"/><rect x="649" y="288.44" width="72.11" height="72.11" fill="#eeeeee"/><path d="M 649 360.55 A 72.11 72.11 0 0 1  721.11 288.44 L 649 360.55 A 72.11 72.11 0 0 0 721.11 288.44" fill="#efb5b8"/><rect x="721.11" y="288.44" width="72.11" height="72.11" fill="#bebebe"/><rect x="721.11" y="288.44" width="72.11" height="72.11" fill="#bfbfbf"/><rect x="793.22" y="288.44" width="72.11" height="72.11" fill="#bababa"/><path d="M 793.22 360.55 A 72.11 72.11 0 0 0 865.33 288.44 L 793.22 288.44" fill="#fcf1f1"/><rect x="865.33" y="288.44" width="72.11" height="72.11" fill="#fae5e6"/><path d="M 865.33 288.44 A 72.11 72.11 0 0 1 937.44 360.55 L 865.33 360.55" fill="#efb5b8"/><rect x="937.44" y="288.44" width="72.11" height="72.11" fill="#e3e3e3"/><rect x="937.44" y="288.44" width="72.11" height="72.11" fill="#fdfdfd"/><rect x="1009.56" y="288.44" width="72.11" height="72.11" fill="#fcefef"/><path d="M 1009.56 288.44 A 72.11 72.11 0 0 0 1081.6699999999998 360.55 L 1081.6699999999998 288.44" fill="#ededed"/><rect x="1081.67" y="288.44" width="72.11" height="72.11" fill="#bebebe"/><polygon points="1081.67,288.44 1153.78,288.44 1081.67,360.55" fill="#fffefe"/><rect x="0" y="360.56" width="72.11" height="72.11" fill="#fae6e7"/><polygon points="0,360.56 72.11,360.56 0,432.67" fill="#f5d2d3"/><rect x="72.11" y="360.56" width="72.11" height="72.11" fill="#f3f3f3"/><polygon points="144.22,360.56 144.22,432.67 72.11,432.67" fill="#f7d7d9"/><rect x="144.22" y="360.56" width="72.11" height="72.11" fill="#f6d4d6"/><path d="M 144.22 432.67 A 72.11 72.11 0 0 1  216.32999999999998 360.56 L 144.22 432.67 A 72.11 72.11 0 0 0 216.32999999999998 360.56" fill="#ececec"/><rect x="216.33" y="360.56" width="72.11" height="72.11" fill="#f6d3d5"/><path d="M 216.33 432.67 A 72.11 72.11 0 0 1  288.44 360.56 L 288.44 432.67" fill="#e6e6e6"/><rect x="288.44" y="360.56" width="72.11" height="72.11" fill="#f5d0d2"/><polygon points="360.55,360.56 360.55,432.67 288.44,432.67" fill="#c4c4c4"/><rect x="360.56" y="360.56" width="72.11" height="72.11" fill="#fcf2f2"/><path d="M 360.56 360.56 A 72.11 72.11 0 0 1 432.67 432.67 L 360.56 432.67" fill="#fcf0f1"/><rect x="432.67" y="360.56" width="72.11" height="72.11" fill="#f0b6b9"/><path d="M 432.67 432.67 A 72.11 72.11 0 0 1  504.78000000000003 360.56 L 504.78000000000003 432.67" fill="#c6c6c6"/><rect x="504.78" y="360.56" width="72.11" height="72.11" fill="#d5d5d5"/><path d="M 504.78 360.56 A 72.11 72.11 0 0 0 576.89 432.67 L 576.89 360.56" fill="#f0b6b9"/><rect x="576.89" y="360.56" width="72.11" height="72.11" fill="#fae5e6"/><polygon points="576.89,360.56 649,360.56 649,432.67" fill="#c5c5c5"/><rect x="649" y="360.56" width="72.11" height="72.11" fill="#f8dfe0"/><polygon points="649,360.56 721.11,360.56 649,432.67" fill="#faeaea"/><rect x="721.11" y="360.56" width="72.11" height="72.11" fill="#cccccc"/><rect x="721.11" y="360.56" width="72.11" height="72.11" fill="#c3c3c3"/><rect x="793.22" y="360.56" width="72.11" height="72.11" fill="#f8e0e1"/><path d="M 793.22 432.67 A 72.11 72.11 0 0 0 865.33 360.56 L 793.22 360.56" fill="#e1e1e1"/><rect x="865.33" y="360.56" width="72.11" height="72.11" fill="#f0b7ba"/><polygon points="937.44,360.56 937.44,432.67 865.33,432.67" fill="#f2c4c6"/><rect x="937.44" y="360.56" width="72.11" height="72.11" fill="#ffffff"/><polygon points="937.44,360.56 1009.5500000000001,360.56 1009.5500000000001,432.67" fill="#c6c6c6"/><rect x="1009.56" y="360.56" width="72.11" height="72.11" fill="#dcdcdc"/><path d="M 1009.56 360.56 A 72.11 72.11 0 0 0 1081.6699999999998 432.67 L 1081.6699999999998 360.56" fill="#fcf3f3"/><rect x="1081.67" y="360.56" width="72.11" height="72.11" fill="#fbebec"/><path d="M 1081.67 432.67 A 72.11 72.11 0 0 1  1153.78 360.56 L 1081.67 432.67 A 72.11 72.11 0 0 0 1153.78 360.56" fill="#f5d0d2"/><rect x="0" y="432.67" width="72.11" height="72.11" fill="#b5b5b5"/><rect x="0" y="432.67" width="72.11" height="72.11" fill="#f7d8da"/><rect x="72.11" y="432.67" width="72.11" height="72.11" fill="#c8c8c8"/><polygon points="72.11,432.67 144.22,432.67 144.22,504.78000000000003" fill="#e7e7e7"/><rect x="144.22" y="432.67" width="72.11" height="72.11" fill="#bdbdbd"/><rect x="144.22" y="432.67" width="72.11" height="72.11" fill="#b4b4b4"/><rect x="216.33" y="432.67" width="72.11" height="72.11" fill="#b6b6b6"/><rect x="216.33" y="432.67" width="72.11" height="72.11" fill="#d5d5d5"/><rect x="288.44" y="432.67" width="72.11" height="72.11" fill="#f5d1d3"/><path d="M 288.44 504.78000000000003 A 72.11 72.11 0 0 1  360.55 432.67 L 360.55 504.78000000000003" fill="#fae8e9"/><rect x="360.56" y="432.67" width="72.11" height="72.11" fill="#f4cbce"/><polygon points="432.67,432.67 432.67,504.78000000000003 360.56,504.78000000000003" fill="#f2c0c2"/><rect x="432.67" y="432.67" width="72.11" height="72.11" fill="#f5f5f5"/><rect x="432.67" y="432.67" width="72.11" height="72.11" fill="#b6b6b6"/><rect x="504.78" y="432.67" width="72.11" height="72.11" fill="#eaeaea"/><path d="M 504.78 504.78000000000003 A 72.11 72.11 0 0 1  576.89 432.67 L 576.89 504.78000000000003" fill="#c7c7c7"/><rect x="576.89" y="432.67" width="72.11" height="72.11" fill="#f8ddde"/><path d="M 576.89 504.78000000000003 A 72.11 72.11 0 0 0 649 432.67 L 576.89 432.67" fill="#f2bfc2"/><rect x="649" y="432.67" width="72.11" height="72.11" fill="#d3d3d3"/><path d="M 649 504.78000000000003 A 72.11 72.11 0 0 1  721.11 432.67 L 721.11 504.78000000000003" fill="#cbcbcb"/><rect x="721.11" y="432.67" width="72.11" height="72.11" fill="#c5c5c5"/><rect x="721.11" y="432.67" width="72.11" height="72.11" fill="#f2f2f2"/><rect x="793.22" y="432.67" width="72.11" height="72.11" fill="#f0babc"/><path d="M 793.22 432.67 A 72.11 72.11 0 0 0 865.33 504.78000000000003 L 865.33 432.67" fill="#ffffff"/><rect x="865.33" y="432.67" width="72.11" height="72.11" fill="#bbbbbb"/><rect x="865.33" y="432.67" width="72.11" height="72.11" fill="#fbecec"/><rect x="937.44" y="432.67" width="72.11" height="72.11" fill="#f3c4c6"/><path d="M 937.44 504.78000000000003 A 72.11 72.11 0 0 0 1009.5500000000001 432.67 L 937.44 432.67" fill="#fbeaeb"/><rect x="1009.56" y="432.67" width="72.11" height="72.11" fill="#ececec"/><rect x="1009.56" y="432.67" width="72.11" height="72.11" fill="#f9e4e5"/><rect x="1081.67" y="432.67" width="72.11" height="72.11" fill="#f2c2c5"/><path d="M 1081.67 504.78000000000003 A 72.11 72.11 0 0 1  1153.78 432.67 L 1153.78 504.78000000000003" fill="#efefef"/><rect x="0" y="504.78" width="72.11" height="72.11" fill="#f3c8ca"/><path d="M 0 576.89 A 72.11 72.11 0 0 0 72.11 504.78 L 0 504.78" fill="#fbedee"/><rect x="72.11" y="504.78" width="72.11" height="72.11" fill="#f3c7c9"/><path d="M 72.11 504.78 A 72.11 72.11 0 0 1  144.22 576.89 L 72.11 504.78 A 72.11 72.11 0 0 0 144.22 576.89" fill="#f8e0e1"/><rect x="144.22" y="504.78" width="72.11" height="72.11" fill="#fefefe"/><polygon points="216.32999999999998,504.78 216.32999999999998,576.89 144.22,576.89" fill="#c8c8c8"/><rect x="216.33" y="504.78" width="72.11" height="72.11" fill="#eaeaea"/><path d="M 216.33 576.89 A 72.11 72.11 0 0 1  288.44 504.78 L 216.33 576.89 A 72.11 72.11 0 0 0 288.44 504.78" fill="#f5cfd1"/><rect x="288.44" y="504.78" width="72.11" height="72.11" fill="#f0b6b9"/><polygon points="360.55,504.78 360.55,576.89 288.44,576.89" fill="#e4e4e4"/><rect x="360.56" y="504.78" width="72.11" height="72.11" fill="#f8dcdd"/><path d="M 360.56 504.78 A 72.11 72.11 0 0 1  432.67 576.89 L 360.56 504.78 A 72.11 72.11 0 0 0 432.67 576.89" fill="#fcf2f3"/><rect x="432.67" y="504.78" width="72.11" height="72.11" fill="#fefbfb"/><polygon points="432.67,504.78 504.78000000000003,576.89 432.67,576.89" fill="#f3c6c9"/><rect x="504.78" y="504.78" width="72.11" height="72.11" fill="#f3c7ca"/><rect x="504.78" y="504.78" width="72.11" height="72.11" fill="#d5d5d5"/><rect x="576.89" y="504.78" width="72.11" height="72.11" fill="#f4ccce"/><rect x="576.89" y="504.78" width="72.11" height="72.11" fill="#f9e4e5"/><rect x="649" y="504.78" width="72.11" height="72.11" fill="#fefefe"/><rect x="649" y="504.78" width="72.11" height="72.11" fill="#f6d5d7"/><rect x="721.11" y="504.78" width="72.11" height="72.11" fill="#d9d9d9"/><polygon points="721.11,504.78 793.22,576.89 721.11,576.89" fill="#f6d5d6"/><rect x="793.22" y="504.78" width="72.11" height="72.11" fill="#f0b9bb"/><rect x="793.22" y="504.78" width="72.11" height="72.11" fill="#c6c6c6"/><rect x="865.33" y="504.78" width="72.11" height="72.11" fill="#d1d1d1"/><polygon points="865.33,504.78 937.44,576.89 865.33,576.89" fill="#dfdfdf"/><rect x="937.44" y="504.78" width="72.11" height="72.11" fill="#d4d4d4"/><rect x="937.44" y="504.78" width="72.11" height="72.11" fill="#cecece"/><rect x="1009.56" y="504.78" width="72.11" height="72.11" fill="#f9e3e4"/><rect x="1009.56" y="504.78" width="72.11" height="72.11" fill="#fae6e7"/><rect x="1081.67" y="504.78" width="72.11" height="72.11" fill="#fbebec"/><rect x="1081.67" y="504.78" width="72.11" height="72.11" fill="#d7d7d7"/><rect x="0" y="576.89" width="72.11" height="72.11" fill="#f5ced0"/><polygon points="0,576.89 72.11,649 0,649" fill="#f6d4d5"/><rect x="72.11" y="576.89" width="72.11" height="72.11" fill="#f7d8d9"/><path d="M 72.11 649 A 72.11 72.11 0 0 1  144.22 576.89 L 72.11 649 A 72.11 72.11 0 0 0 144.22 576.89" fill="#e7e7e7"/><rect x="144.22" y="576.89" width="72.11" height="72.11" fill="#f2c4c6"/><rect x="144.22" y="576.89" width="72.11" height="72.11" fill="#d0d0d0"/><rect x="216.33" y="576.89" width="72.11" height="72.11" fill="#fdfdfd"/><path d="M 216.33 649 A 72.11 72.11 0 0 0 288.44 576.89 L 216.33 576.89" fill="#f5d0d2"/><rect x="288.44" y="576.89" width="72.11" height="72.11" fill="#e2e2e2"/><path d="M 288.44 576.89 A 72.11 72.11 0 0 0 360.55 649 L 360.55 576.89" fill="#dedede"/><rect x="360.56" y="576.89" width="72.11" height="72.11" fill="#f5f5f5"/><path d="M 360.56 649 A 72.11 72.11 0 0 1  432.67 576.89 L 432.67 649" fill="#eeeeee"/><rect x="432.67" y="576.89" width="72.11" height="72.11" fill="#f5ced0"/><rect x="432.67" y="576.89" width="72.11" height="72.11" fill="#f8ddde"/><rect x="504.78" y="576.89" width="72.11" height="72.11" fill="#f8dee0"/><path d="M 504.78 576.89 A 72.11 72.11 0 0 1 576.89 649 L 504.78 649" fill="#cdcdcd"/><rect x="576.89" y="576.89" width="72.11" height="72.11" fill="#fefafa"/><path d="M 576.89 649 A 72.11 72.11 0 0 1  649 576.89 L 576.89 649 A 72.11 72.11 0 0 0 649 576.89" fill="#f4cbcd"/><rect x="649" y="576.89" width="72.11" height="72.11" fill="#f4c9cb"/><path d="M 649 576.89 A 72.11 72.11 0 0 1 721.11 649 L 649 649" fill="#fefefe"/><rect x="721.11" y="576.89" width="72.11" height="72.11" fill="#f9f9f9"/><path d="M 721.11 649 A 72.11 72.11 0 0 1  793.22 576.89 L 793.22 649" fill="#fafafa"/><rect x="793.22" y="576.89" width="72.11" height="72.11" fill="#f3c5c8"/><path d="M 793.22 576.89 A 72.11 72.11 0 0 0 865.33 649 L 865.33 576.89" fill="#c3c3c3"/><rect x="865.33" y="576.89" width="72.11" height="72.11" fill="#f4ccce"/><polygon points="865.33,576.89 937.44,576.89 865.33,649" fill="#dddddd"/><rect x="937.44" y="576.89" width="72.11" height="72.11" fill="#f1bec0"/><path d="M 937.44 649 A 72.11 72.11 0 0 0 1009.5500000000001 576.89 L 937.44 576.89" fill="#fef8f8"/><rect x="1009.56" y="576.89" width="72.11" height="72.11" fill="#c1c1c1"/><rect x="1009.56" y="576.89" width="72.11" height="72.11" fill="#f6d5d7"/><rect x="1081.67" y="576.89" width="72.11" height="72.11" fill="#f0babc"/><path d="M 1081.67 649 A 72.11 72.11 0 0 0 1153.78 576.89 L 1081.67 576.89" fill="#fcf2f2"/></g></svg>